<svg width="48" height="48" viewBox="0 0 48 48" fill="none" xmlns="http://www.w3.org/2000/svg">
<path d="M20.9868 35C19.1894 35 17.815 33.6381 17.815 31.8571C17.815 30.0762 19.1894 28.7143 20.9868 28.7143C22.7841 28.7143 24.1586 30.0762 24.1586 31.8571C24.1586 33.6381 22.7841 35 20.9868 35ZM20.9868 29.7619C19.8238 29.7619 18.8722 30.7048 18.8722 31.8571C18.8722 33.0095 19.8238 33.9524 20.9868 33.9524C22.1498 33.9524 23.1013 33.0095 23.1013 31.8571C23.1013 30.7048 22.1498 29.7619 20.9868 29.7619Z" fill="white"/>
<path d="M30.5022 35C28.7048 35 27.3304 33.6381 27.3304 31.8571C27.3304 30.0762 28.7048 28.7143 30.5022 28.7143C32.2996 28.7143 33.674 30.0762 33.674 31.8571C33.674 33.6381 32.2996 35 30.5022 35ZM30.5022 29.7619C29.3392 29.7619 28.3877 30.7048 28.3877 31.8571C28.3877 33.0095 29.3392 33.9524 30.5022 33.9524C31.6652 33.9524 32.6167 33.0095 32.6167 31.8571C32.6167 30.7048 31.6652 29.7619 30.5022 29.7619Z" fill="white"/>
<path d="M32.511 26.4095H18.978L15.489 15.9333H36L32.511 26.4095ZM19.8238 25.3619H31.7709L34.6256 16.981H16.9692L19.8238 25.3619Z" fill="white"/>
<path d="M15.7004 16.5619L14.8546 14.0476H12V13H15.5947L16.7577 16.2476L15.7004 16.5619Z" fill="white"/>
</svg>
