<svg width="78" height="36" viewBox="0 0 78 36" fill="none" xmlns="http://www.w3.org/2000/svg">
<path d="M22.31 19.62C21.621 19.9407 20.953 20.3048 20.31 20.71C19.8471 21.0406 19.4093 21.405 19 21.8C18.1401 20.8453 17.0582 20.1172 15.85 19.68C15.7546 19.6418 15.6515 19.6264 15.5491 19.6351C15.4466 19.6438 15.3477 19.6763 15.26 19.73C15.03 19.99 15.26 20.17 15.5 20.31C15.9815 20.5795 16.3995 20.9493 16.7256 21.3945C17.0517 21.8396 17.2783 22.3496 17.39 22.89C17.7021 24.8195 17.6478 26.7906 17.23 28.7C17.128 29.1765 16.9218 29.6244 16.6261 30.0117C16.3305 30.399 15.9527 30.716 15.52 30.94C16.1335 31.0373 16.7607 31.0038 17.3604 30.8418C17.9601 30.6798 18.5189 30.3929 19 30C19.456 30.3907 19.9888 30.6815 20.5641 30.8537C21.1394 31.0259 21.7443 31.0758 22.34 31C22.34 31 22.34 30.91 22.34 30.9C21.884 30.6215 21.4963 30.2442 21.2056 29.796C20.9148 29.3477 20.7284 28.8399 20.66 28.31C20.3885 26.6232 20.3515 24.9069 20.55 23.21C20.6128 22.6611 20.797 22.1332 21.0894 21.6644C21.3817 21.1956 21.7748 20.7979 22.24 20.5C22.3702 20.4332 22.4884 20.3453 22.59 20.24C22.6753 20.1038 22.7394 19.9555 22.78 19.8C22.63 19.71 22.42 19.57 22.31 19.62Z" fill="#8C8C8C"/>
<path d="M24.79 16.88C23.45 16.09 21.35 16.88 21.09 18.31C21.4237 18.4789 21.7891 18.5757 22.1626 18.5944C22.5361 18.613 22.9093 18.553 23.2581 18.4182C23.607 18.2833 23.9236 18.0768 24.1874 17.8118C24.4513 17.5468 24.6566 17.2294 24.79 16.88Z" fill="#8C8C8C"/>
<path d="M16.94 18.32C16.8114 17.9643 16.6084 17.6402 16.3447 17.3692C16.0809 17.0982 15.7624 16.8865 15.4103 16.7484C15.0583 16.6102 14.6808 16.5487 14.3031 16.5679C13.9254 16.5872 13.5562 16.6868 13.22 16.86C13.3538 17.2117 13.5597 17.5315 13.8244 17.7989C14.0891 18.0664 14.4067 18.2755 14.757 18.413C15.1073 18.5505 15.4824 18.6132 15.8583 18.5972C16.2343 18.5812 16.6027 18.4868 16.94 18.32Z" fill="#8C8C8C"/>
<path d="M24.14 19.31C24.3219 19.5945 24.5661 19.8339 24.8541 20.0102C25.1421 20.1866 25.4663 20.2952 25.8024 20.328C26.1385 20.3607 26.4776 20.3167 26.7942 20.1992C27.1108 20.0818 27.3966 19.894 27.63 19.65C27.4507 19.3623 27.2076 19.1198 26.9195 18.9411C26.6315 18.7624 26.3062 18.6524 25.9688 18.6195C25.6315 18.5866 25.291 18.6318 24.9739 18.7515C24.6568 18.8713 24.3715 19.0624 24.14 19.31Z" fill="#8C8C8C"/>
<path d="M13 15.13C12.9086 14.8083 12.7461 14.5113 12.5244 14.261C12.3027 14.0106 12.0276 13.8134 11.7194 13.6837C11.4111 13.5541 11.0777 13.4954 10.7437 13.5121C10.4097 13.5288 10.0838 13.6203 9.79 13.78C9.87454 14.1062 10.0332 14.4084 10.2536 14.6633C10.4741 14.9181 10.7504 15.1187 11.061 15.2493C11.3716 15.3799 11.7081 15.4371 12.0444 15.4164C12.3807 15.3957 12.7078 15.2977 13 15.13Z" fill="#8C8C8C"/>
<path d="M13.86 19.32C13.6304 19.0722 13.3472 18.8802 13.0321 18.7584C12.717 18.6366 12.3783 18.5884 12.0417 18.6173C11.7051 18.6462 11.3796 18.7516 11.0899 18.9253C10.8002 19.0991 10.554 19.3367 10.37 19.62C10.6016 19.8642 10.8852 20.0531 11.1998 20.1726C11.5144 20.2922 11.8519 20.3393 12.1872 20.3104C12.5226 20.2816 12.8471 20.1776 13.1367 20.0061C13.4263 19.8347 13.6735 19.6001 13.86 19.32Z" fill="#8C8C8C"/>
<path d="M13.62 12.42C13.6425 12.0844 13.5871 11.7481 13.458 11.4375C13.3289 11.1269 13.1297 10.8504 12.876 10.6296C12.6222 10.4088 12.3209 10.2497 11.9954 10.1648C11.67 10.0798 11.3293 10.0714 11 10.14C10.9711 10.4772 11.0222 10.8166 11.1491 11.1303C11.2761 11.4441 11.4754 11.7234 11.7307 11.9456C11.9861 12.1679 12.2903 12.3266 12.6186 12.4091C12.9469 12.4915 13.29 12.4952 13.62 12.42Z" fill="#8C8C8C"/>
<path d="M28.22 13.81C27.9292 13.644 27.6046 13.5463 27.2705 13.5241C26.9364 13.502 26.6017 13.556 26.2915 13.6822C25.9814 13.8084 25.704 14.0034 25.4803 14.2524C25.2565 14.5015 25.0923 14.7982 25 15.12C25.2904 15.288 25.6153 15.3874 25.9499 15.4105C26.2846 15.4337 26.6201 15.38 26.9308 15.2536C27.2415 15.1272 27.5192 14.9314 27.7427 14.6812C27.9661 14.431 28.1294 14.133 28.22 13.81Z" fill="#8C8C8C"/>
<path d="M27 10.16C26.6719 10.0928 26.3327 10.1024 26.0089 10.1882C25.6851 10.274 25.3856 10.4335 25.1338 10.6543C24.882 10.8751 24.6847 11.1513 24.5574 11.4611C24.4301 11.7709 24.3762 12.1059 24.4 12.44C24.7279 12.5051 25.0663 12.4939 25.3891 12.4074C25.712 12.3208 26.0106 12.1612 26.2619 11.9408C26.5133 11.7204 26.7105 11.4452 26.8385 11.1364C26.9665 10.8276 27.0217 10.4935 27 10.16Z" fill="#8C8C8C"/>
<path d="M19.56 13.77C19.2498 13.8926 18.9713 14.0839 18.7455 14.3294C18.5197 14.575 18.3525 14.8685 18.2563 15.1879C18.16 15.5073 18.1374 15.8444 18.19 16.1738C18.2426 16.5032 18.3691 16.8164 18.56 17.09C18.8715 16.9689 19.1514 16.7785 19.3783 16.5331C19.6052 16.2877 19.7733 15.9939 19.8697 15.6739C19.9661 15.3539 19.9883 15.0161 19.9346 14.6862C19.881 14.3563 19.7528 14.043 19.56 13.77Z" fill="#8C8C8C"/>
<path d="M16.18 7.1C15.9531 7.3384 15.7854 7.62679 15.6905 7.94191C15.5955 8.25703 15.576 8.59005 15.6334 8.91411C15.6908 9.23818 15.8236 9.54421 16.021 9.80752C16.2185 10.0708 16.475 10.2841 16.77 10.43C16.9969 10.1916 17.1646 9.90321 17.2595 9.58809C17.3545 9.27297 17.374 8.93995 17.3166 8.61589C17.2592 8.29182 17.1264 7.98579 16.929 7.72248C16.7315 7.45916 16.475 7.24594 16.18 7.1Z" fill="#8C8C8C"/>
<path d="M29.53 16.86C29.3095 16.6139 29.035 16.4221 28.728 16.2998C28.4209 16.1775 28.0898 16.128 27.7604 16.1551C27.4311 16.1823 27.1125 16.2853 26.8296 16.4562C26.5467 16.627 26.3073 16.8611 26.13 17.14C26.3536 17.3807 26.6289 17.5675 26.9351 17.6863C27.2414 17.8051 27.5706 17.8528 27.898 17.8258C28.2254 17.7989 28.5424 17.6979 28.8251 17.5306C29.1078 17.3633 29.3488 17.134 29.53 16.86Z" fill="#8C8C8C"/>
<path d="M8.49 16.86C8.67201 17.1323 8.91276 17.3602 9.19453 17.5271C9.4763 17.694 9.79192 17.7956 10.1181 17.8244C10.4444 17.8532 10.7729 17.8084 11.0795 17.6934C11.3862 17.5785 11.6631 17.3962 11.89 17.16C11.7144 16.8797 11.4763 16.644 11.1943 16.4713C10.9122 16.2985 10.594 16.1935 10.2646 16.1644C9.93518 16.1354 9.60349 16.1831 9.29559 16.3037C8.98769 16.4244 8.71194 16.6148 8.49 16.86Z" fill="#8C8C8C"/>
<path d="M21.22 10.42C21.5151 10.2732 21.7719 10.0597 21.97 9.79628C22.1681 9.5329 22.3021 9.22696 22.3613 8.90274C22.4205 8.57853 22.4034 8.24497 22.3111 7.92857C22.2189 7.61216 22.0542 7.32161 21.83 7.08C21.5365 7.22831 21.2812 7.44258 21.0844 7.70602C20.8875 7.96946 20.7543 8.27492 20.6952 8.59845C20.6361 8.92198 20.6527 9.2548 20.7438 9.57083C20.8348 9.88685 20.9978 10.1775 21.22 10.42Z" fill="#8C8C8C"/>
<path d="M18.8 9.27C18.6103 9.53415 18.4822 9.83738 18.4249 10.1575C18.3676 10.4776 18.3827 10.8064 18.469 11.12C18.5553 11.4335 18.7106 11.7237 18.9236 11.9695C19.1366 12.2152 19.4019 12.4101 19.7 12.54C19.8934 12.2771 20.0247 11.9737 20.0841 11.6528C20.1434 11.3318 20.1293 11.0015 20.0427 10.6868C19.956 10.3721 19.7992 10.0811 19.584 9.83575C19.3688 9.59035 19.1007 9.39692 18.8 9.27Z" fill="#8C8C8C"/>
<path d="M17.66 13.34C17.71 12.05 16.66 11.17 15.18 11.14C14.83 12.29 16.18 13.51 17.66 13.34Z" fill="#8C8C8C"/>
<path d="M16.7 15.72C16.6742 15.4076 16.5791 15.1049 16.4217 14.8339C16.2642 14.5628 16.0484 14.3303 15.7898 14.1531C15.5312 13.976 15.2364 13.8586 14.9268 13.8096C14.6172 13.7607 14.3006 13.7813 14 13.87C14.0203 14.1846 14.1119 14.4905 14.2678 14.7645C14.4237 15.0386 14.6399 15.2736 14.9 15.4518C15.1601 15.63 15.4573 15.7467 15.7691 15.7932C16.0809 15.8397 16.3993 15.8146 16.7 15.72Z" fill="#8C8C8C"/>
<path d="M21.33 15.75C22.44 16.09 24.07 15.11 23.97 13.9C22.62 13.59 21.2 14.59 21.33 15.75Z" fill="#8C8C8C"/>
<path d="M21.29 13.11C21.5776 13.1242 21.8647 13.074 22.1303 12.9628C22.3959 12.8517 22.6333 12.6825 22.8251 12.4678C23.0169 12.253 23.1582 11.998 23.2386 11.7216C23.319 11.4451 23.3366 11.1541 23.29 10.87C22 10.84 20.84 12.29 21.29 13.11Z" fill="#8C8C8C"/>
<path d="M8.78 15.07C8.66594 14.8181 8.49446 14.5965 8.27931 14.4229C8.06416 14.2492 7.81132 14.1284 7.54107 14.0701C7.27081 14.0117 6.99064 14.0175 6.72303 14.087C6.45541 14.1564 6.20779 14.2876 6 14.47C6.1202 14.716 6.29464 14.9315 6.51018 15.1003C6.72573 15.2692 6.97677 15.3869 7.24439 15.4446C7.51202 15.5024 7.78927 15.4987 8.05525 15.4338C8.32124 15.3689 8.56904 15.2445 8.78 15.07Z" fill="#8C8C8C"/>
<path d="M7.86 10.88C7.88769 11.1526 7.97862 11.4149 8.12556 11.6461C8.2725 11.8773 8.47139 12.071 8.70639 12.2118C8.94139 12.3527 9.20602 12.4367 9.47921 12.4572C9.7524 12.4777 10.0266 12.4341 10.28 12.33C10.2564 12.0556 10.1681 11.7907 10.0221 11.5571C9.87624 11.3235 9.67696 11.1279 9.4407 10.9863C9.20444 10.8448 8.93795 10.7613 8.66315 10.7428C8.38835 10.7243 8.11309 10.7714 7.86 10.88Z" fill="#8C8C8C"/>
<path d="M28.75 18.71C28.8867 18.9492 29.0759 19.1542 29.3033 19.3096C29.5308 19.4651 29.7905 19.5668 30.063 19.6073C30.3355 19.6477 30.6136 19.6258 30.8764 19.5431C31.1392 19.4604 31.3797 19.3192 31.58 19.13C31.4491 18.8846 31.2624 18.6732 31.0351 18.513C30.8077 18.3527 30.546 18.2479 30.2708 18.2071C29.9956 18.1663 29.7147 18.1905 29.4506 18.2778C29.1865 18.3651 28.9466 18.5132 28.75 18.71Z" fill="#8C8C8C"/>
<path d="M6.42 19.11C6.61503 19.3031 6.85163 19.449 7.11172 19.5367C7.37181 19.6243 7.64849 19.6513 7.92061 19.6156C8.19273 19.5799 8.45308 19.4824 8.68176 19.3307C8.91044 19.1789 9.10138 18.9769 9.24 18.74C9.04891 18.5391 8.81307 18.3863 8.5517 18.2938C8.29033 18.2014 8.01082 18.172 7.73594 18.2081C7.46106 18.2442 7.19859 18.3447 6.96991 18.5014C6.74123 18.6581 6.55281 18.8666 6.42 19.11Z" fill="#8C8C8C"/>
<path d="M18.05 19.26C18.0035 19.4097 17.9929 19.5681 18.0189 19.7227C18.0449 19.8772 18.1069 20.0235 18.1998 20.1496C18.2928 20.2758 18.4141 20.3784 18.5539 20.4491C18.6938 20.5198 18.8483 20.5566 19.005 20.5566C19.1617 20.5566 19.3162 20.5198 19.4561 20.4491C19.5959 20.3784 19.7172 20.2758 19.8102 20.1496C19.9031 20.0235 19.9651 19.8772 19.9911 19.7227C20.0171 19.5681 20.0065 19.4097 19.96 19.26C19.9501 19.0085 19.8458 18.7701 19.6679 18.5921C19.4899 18.4142 19.2515 18.3099 19 18.3C18.7503 18.3123 18.5143 18.4177 18.3384 18.5954C18.1626 18.7731 18.0597 19.0102 18.05 19.26Z" fill="#8C8C8C"/>
<path d="M30.13 10.88C29.8774 10.7763 29.6043 10.7325 29.3319 10.7519C29.0596 10.7713 28.7954 10.8535 28.5601 10.9919C28.3248 11.1304 28.1247 11.3214 27.9755 11.5501C27.8263 11.7788 27.732 12.0388 27.7 12.31C27.9521 12.4204 28.2268 12.4693 28.5015 12.4529C28.7762 12.4365 29.0431 12.3552 29.2802 12.2156C29.5174 12.0761 29.7181 11.8822 29.8658 11.6501C30.0135 11.4179 30.1041 11.154 30.13 10.88Z" fill="#8C8C8C"/>
<path d="M19.27 5C19.0466 5.16556 18.8652 5.38115 18.7401 5.62947C18.6151 5.8778 18.55 6.15197 18.55 6.43C18.55 6.70803 18.6151 6.9822 18.7401 7.23053C18.8652 7.47885 19.0466 7.69444 19.27 7.86C19.4847 7.68857 19.658 7.47102 19.7771 7.22346C19.8962 6.97591 19.9581 6.70472 19.9581 6.43C19.9581 6.15528 19.8962 5.88409 19.7771 5.63654C19.658 5.38898 19.4847 5.17143 19.27 5Z" fill="#8C8C8C"/>
<path d="M25.44 7.62C25.1692 7.63078 24.9044 7.70292 24.6655 7.83096C24.4267 7.959 24.22 8.13961 24.0611 8.35916C23.9022 8.57871 23.7953 8.83148 23.7483 9.09839C23.7013 9.36531 23.7156 9.6394 23.79 9.9C24.0652 9.90155 24.3368 9.83743 24.5823 9.71295C24.8277 9.58847 25.0399 9.40723 25.2013 9.18427C25.3626 8.96132 25.4684 8.70309 25.51 8.43103C25.5515 8.15897 25.5275 7.88093 25.44 7.62Z" fill="#8C8C8C"/>
<path d="M23.44 21.16C23.4619 21.4319 23.5471 21.695 23.6887 21.9281C23.8303 22.1613 24.0245 22.3581 24.2557 22.5028C24.487 22.6476 24.7488 22.7363 25.0204 22.7618C25.292 22.7874 25.5658 22.7491 25.82 22.65C25.8002 22.3772 25.7163 22.1129 25.5752 21.8786C25.4341 21.6443 25.2397 21.4465 25.0079 21.3014C24.7761 21.1562 24.5133 21.0678 24.2409 21.0432C23.9684 21.0187 23.6941 21.0587 23.44 21.16Z" fill="#8C8C8C"/>
<path d="M12.58 7.59C12.5044 7.82892 12.4786 8.08084 12.5043 8.33013C12.53 8.57942 12.6067 8.82077 12.7295 9.03922C12.8523 9.25767 13.0187 9.44857 13.2183 9.60008C13.4179 9.75159 13.6466 9.86048 13.89 9.92C14.2 9.98 14.29 9.85 14.31 9.56C14.3324 9.07164 14.1647 8.5936 13.8421 8.22626C13.5195 7.85892 13.0672 7.63087 12.58 7.59Z" fill="#8C8C8C"/>
<path d="M14.2 21C13.9624 20.9709 13.7213 20.9897 13.4911 21.0554C13.2609 21.1211 13.0462 21.2322 12.8598 21.3824C12.6733 21.5325 12.5188 21.7185 12.4055 21.9293C12.2922 22.1402 12.2223 22.3717 12.2 22.61C12.655 22.7789 13.1583 22.7613 13.6003 22.5609C14.0423 22.3605 14.3873 21.9935 14.56 21.54C14.68 21.2 14.57 21.06 14.2 21Z" fill="#8C8C8C"/>
<path d="M29.23 15.09C29.4422 15.2604 29.6899 15.3811 29.9548 15.4431C30.2198 15.5051 30.4953 15.507 30.7611 15.4484C31.0269 15.3899 31.2761 15.2725 31.4905 15.1049C31.7049 14.9373 31.879 14.7238 32 14.48C31.7942 14.2936 31.5469 14.1592 31.2785 14.0879C31.0102 14.0166 30.7287 14.0106 30.4576 14.0703C30.1865 14.13 29.9336 14.2537 29.72 14.4311C29.5064 14.6085 29.3384 14.8344 29.23 15.09Z" fill="#8C8C8C"/>
<path d="M38.44 20.23C38.1429 20.2276 37.8492 20.1653 37.5767 20.0469C37.3042 19.9284 37.0584 19.7562 36.8539 19.5406C36.6495 19.3249 36.4906 19.0703 36.3869 18.7918C36.2831 18.5134 36.2365 18.2168 36.25 17.92C36.2393 17.6253 36.2879 17.3314 36.393 17.0558C36.4982 16.7803 36.6576 16.5287 36.8619 16.316C37.0662 16.1033 37.3112 15.9338 37.5823 15.8177C37.8534 15.7016 38.1451 15.6411 38.44 15.64C38.8254 15.6542 39.2034 15.7507 39.5484 15.9232C39.8934 16.0957 40.1974 16.3401 40.44 16.64L41.6 15.28C40.7437 14.4545 39.5994 13.9953 38.41 14C37.8847 13.9954 37.3637 14.0943 36.8766 14.2911C36.3895 14.4879 35.946 14.7786 35.5713 15.1468C35.1966 15.515 34.8981 15.9534 34.6929 16.4369C34.4876 16.9205 34.3796 17.4397 34.375 17.965C34.3704 18.4903 34.4693 19.0113 34.6661 19.4984C34.8629 19.9855 35.1536 20.429 35.5218 20.8037C35.89 21.1784 36.3284 21.4769 36.8119 21.6821C37.2955 21.8874 37.8147 21.9954 38.34 22C39.564 21.9588 40.7247 21.4465 41.58 20.57L40.41 19.34C39.8902 19.8761 39.1859 20.1943 38.44 20.23Z" fill="#8C8C8C"/>
<path d="M49 16.77C49 15 47.79 14 45.71 14H42.21V21.84H44.21V19.64H45.78L46.95 21.84H49.2L47.55 19.3C48.0143 19.0684 48.3997 18.7046 48.6577 18.2544C48.9158 17.8042 49.0348 17.2877 49 16.77ZM45.73 18.11H44.2V15.61H45.71C46.58 15.61 47.08 16.02 47.08 16.84C47.08 17.66 46.58 18.11 45.71 18.11H45.73Z" fill="#8C8C8C"/>
<path d="M55.12 18.59C55.1445 18.8095 55.1215 19.0316 55.0526 19.2414C54.9837 19.4512 54.8704 19.6437 54.7206 19.8059C54.5707 19.9681 54.3878 20.0961 54.1841 20.1814C53.9804 20.2666 53.7607 20.3071 53.54 20.3C53.3161 20.3093 53.0928 20.2708 52.8849 20.1872C52.677 20.1036 52.4893 19.9767 52.3342 19.815C52.1791 19.6533 52.0602 19.4604 51.9853 19.2492C51.9105 19.038 51.8814 18.8133 51.9 18.59V14H49.9V18.55C49.9 20.62 51.31 21.93 53.52 21.93C53.9844 21.9781 54.4537 21.9253 54.8958 21.7751C55.3379 21.625 55.7423 21.381 56.0814 21.06C56.4204 20.739 56.6861 20.3485 56.8602 19.9153C57.0343 19.4821 57.1127 19.0163 57.09 18.55V14H55.09L55.12 18.59Z" fill="#8C8C8C"/>
<path d="M62 20.23C61.7029 20.2276 61.4092 20.1653 61.1367 20.0469C60.8642 19.9284 60.6184 19.7562 60.4139 19.5406C60.2095 19.3249 60.0506 19.0703 59.9469 18.7918C59.8431 18.5134 59.7965 18.2168 59.81 17.92C59.7993 17.6253 59.8479 17.3314 59.953 17.0558C60.0582 16.7803 60.2176 16.5287 60.4219 16.316C60.6262 16.1033 60.8712 15.9338 61.1423 15.8177C61.4134 15.7016 61.7051 15.6411 62 15.64C62.3855 15.6542 62.7634 15.7507 63.1084 15.9232C63.4534 16.0957 63.7574 16.3401 64 16.64L65.1 15.3C64.2544 14.4744 63.1218 14.0084 61.94 14C61.4147 13.9954 60.8937 14.0943 60.4066 14.2911C59.9195 14.4879 59.476 14.7786 59.1013 15.1468C58.7266 15.515 58.4281 15.9534 58.2229 16.4369C58.0176 16.9205 57.9096 17.4397 57.905 17.965C57.9004 18.4903 57.9993 19.0113 58.1961 19.4984C58.3929 19.9855 58.6836 20.429 59.0518 20.8037C59.42 21.1784 59.8584 21.4769 60.3419 21.6821C60.8255 21.8874 61.3447 21.9954 61.87 22C63.094 21.9588 64.2547 21.4465 65.11 20.57L63.94 19.34C63.4277 19.8692 62.7353 20.1868 62 20.23Z" fill="#8C8C8C"/>
<path d="M67.73 18.73H71.47V17.17H67.73V15.61H71.88V14.04H65.74V21.88H72V20.32H67.73V18.73Z" fill="#8C8C8C"/>
</svg>
