<svg width="170" height="34" viewBox="0 0 170 34" fill="none" xmlns="http://www.w3.org/2000/svg">
<g opacity="0.7">
<g opacity="0.7">
<g opacity="0.7">
<path opacity="0.7" d="M26.4593 13.6328L20.2702 20.9585C20.103 21.1567 19.1078 22.1781 19.1078 22.1781C18.8243 22.513 18.229 22.7865 17.7867 22.7865H17.7895C18.2346 22.7865 18.83 22.513 19.1107 22.1781C19.1107 22.1781 20.1058 21.1567 20.2731 20.9585L26.465 13.63C27.0518 12.9351 27.2304 11.9304 27.015 11.0401H27.0121C27.2248 11.9332 27.049 12.9379 26.4593 13.6328Z" fill="white"/>
</g>
</g>
</g>
<g opacity="0.7">
<g opacity="0.7">
<g opacity="0.7">
<path opacity="0.7" d="M26.4593 13.6328L20.2702 20.9585C20.103 21.1567 19.1078 22.1781 19.1078 22.1781C18.8243 22.513 18.229 22.7865 17.7867 22.7865H17.7895C18.2346 22.7865 18.83 22.513 19.1107 22.1781C19.1107 22.1781 20.1058 21.1567 20.2731 20.9585L26.465 13.63C27.0518 12.9351 27.2304 11.9304 27.015 11.0401H27.0121C27.2248 11.9332 27.049 12.9379 26.4593 13.6328Z" fill="white"/>
</g>
</g>
</g>
<g opacity="0.5">
<g opacity="0.5">
<g opacity="0.5">
<path opacity="0.5" d="M16.3076 22.7892H17.7846C18.2298 22.7892 18.8223 22.5157 19.1058 22.1808C19.1058 22.1808 20.0981 21.1622 20.2682 20.9613L26.4573 13.6327C27.047 12.9378 27.2227 11.9332 27.0073 11.0429H21.8587H21.853H20.3759C19.9337 11.0429 19.3383 11.3164 19.0548 11.6541C19.0548 11.6541 18.0597 12.6727 17.8924 12.8736L11.7033 20.1994C11.1165 20.8971 10.9378 21.8962 11.1533 22.7892H16.3047H16.3076Z" fill="white"/>
</g>
</g>
</g>
<g opacity="0.5">
<g opacity="0.5">
<g opacity="0.5">
<path opacity="0.5" d="M4.12792 20.8609L9.96542 13.5603C10.7451 12.4998 10.7451 10.7667 9.96542 9.70345L4.12792 2.4056C3.34542 1.34511 3.79621 0.477186 5.12587 0.477186H2.16885C0.839182 0.477186 0.388399 1.34511 1.17089 2.4056L7.00839 9.70624C7.78805 10.7695 7.78805 12.5026 7.00839 13.5631L1.16806 20.8609C0.388399 21.9214 0.836347 22.7866 2.16602 22.7866H5.12587C3.79621 22.7894 3.34542 21.9214 4.12792 20.8609Z" fill="white"/>
</g>
</g>
</g>
<g opacity="0.7">
<g opacity="0.7">
<g opacity="0.7">
<path opacity="0.7" d="M11.7034 20.1995L17.8925 12.8738C18.0598 12.6728 19.0549 11.6542 19.0549 11.6542C19.3384 11.3193 19.9309 11.043 20.3761 11.043H21.8531H21.8588H27.0074C26.911 10.6439 26.7437 10.2644 26.4857 9.94904L20.24 2.33025C20.0727 2.12932 19.0974 1.09394 19.0974 1.09394C18.8167 0.756262 18.227 0.477186 17.7848 0.477186H16.3077H16.3048H10.8075H9.13483H5.12597C3.79347 0.477186 3.34552 1.34511 4.12801 2.4056L9.96551 9.70624C10.7452 10.7667 10.7452 12.5026 9.96551 13.5631L4.12801 20.8609C3.34552 21.9214 3.79631 22.7866 5.12597 22.7866H9.13199H10.8047H11.1506C10.938 21.8963 11.1137 20.8972 11.7034 20.1995Z" fill="white"/>
</g>
</g>
</g>
<g opacity="0.5">
<g opacity="0.5">
<g opacity="0.5">
<path opacity="0.5" d="M31.1569 24.126C30.3772 23.0655 30.3772 21.3297 31.1569 20.272L36.9943 12.9713C37.7768 11.9108 37.3261 11.0429 35.9964 11.0429H33.0365C34.3662 11.0429 34.817 11.9108 34.0373 12.9713L28.197 20.272C27.4202 21.3297 27.4202 23.0655 28.197 24.126L34.0373 31.4294C34.817 32.4899 34.3662 33.3551 33.0365 33.3551H35.9964C37.3261 33.3551 37.7768 32.4899 36.9943 31.4294L31.1569 24.126Z" fill="white"/>
</g>
</g>
</g>
<g opacity="0.7">
<g opacity="0.7">
<g opacity="0.7">
<path opacity="0.7" d="M34.0355 31.4267L28.1952 24.1233C27.4184 23.0628 27.4184 21.3297 28.1952 20.2692L34.0355 12.9686C34.8152 11.9081 34.3644 11.0401 33.0347 11.0401H29.0259H27.356H27.0129C27.2284 11.9332 27.0498 12.9351 26.4629 13.6272L20.2682 20.9585C20.1009 21.1595 19.1058 22.1781 19.1058 22.1781C18.8223 22.513 18.2269 22.7865 17.7847 22.7865H17.7818H16.3047H16.3019H11.1533C11.2497 23.1856 11.417 23.5651 11.675 23.8805L17.9207 31.502C18.0852 31.703 19.0661 32.7356 19.0661 32.7356C19.3468 33.076 19.9365 33.3523 20.3788 33.3523H21.8559H21.8615H27.3588H29.0287H33.0376C34.3644 33.3551 34.8152 32.4872 34.0355 31.4267Z" fill="white"/>
</g>
</g>
</g>
<path d="M16.3076 22.7892H17.7846C18.2298 22.7892 18.8223 22.5157 19.1058 22.1808C19.1058 22.1808 20.0981 21.1622 20.2682 20.9613L26.4573 13.6327C27.047 12.9378 27.2227 11.9332 27.0073 11.0429H21.8587H21.853H20.3759C19.9337 11.0429 19.3383 11.3164 19.0548 11.6541C19.0548 11.6541 18.0597 12.6727 17.8924 12.8736L11.7033 20.1994C11.1165 20.8971 10.9378 21.8962 11.1533 22.7892H16.3047H16.3076Z" fill="white"/>
<path d="M59.7671 6.04489L57.0624 20.0127C56.7335 21.6788 56.4897 23.5597 56.433 25.1198H52.8324L53.0223 22.996H52.9656C51.7919 24.743 50.1532 25.4156 48.6024 25.4156C46.3343 25.4156 44.4518 23.6434 44.4518 20.448C44.4518 15.8795 47.8086 11.6878 52.8579 11.6878C53.4022 11.6878 54.111 11.7687 54.6865 11.9836L55.8319 6.04768H59.7671V6.04489ZM54.1138 15.0702C53.8133 14.8302 53.2151 14.6153 52.5574 14.6153C50.2099 14.6153 48.5457 17.3028 48.5457 19.8285C48.5457 21.4136 49.2545 22.3011 50.3999 22.3011C51.5226 22.3011 52.9118 21.1178 53.4334 18.6201L54.1138 15.0702Z" fill="white"/>
<path d="M70.2711 24.3691C68.7174 25.1478 66.7782 25.4157 65.3068 25.4157C61.4851 25.4157 59.5203 23.2668 59.5203 19.8537C59.5203 15.8517 62.466 11.6879 67.2999 11.6879C70.0017 11.6879 71.9409 13.1642 71.9409 15.6117C71.9409 18.969 68.638 20.1774 63.2882 20.0463C63.2882 20.423 63.4243 21.0119 63.6964 21.3886C64.2153 22.0612 65.114 22.41 66.2622 22.41C67.7081 22.41 68.9386 22.0891 70.0017 21.5784L70.2711 24.3691ZM68.2525 15.6089C68.2525 14.9615 67.7081 14.5066 66.8066 14.5066C64.9779 14.5066 63.9403 15.9857 63.6681 17.222C66.7243 17.2471 68.2525 16.8201 68.2525 15.6368V15.6089Z" fill="white"/>
<path d="M82.4735 24.718C81.6286 25.1199 80.2649 25.4157 78.6801 25.4157C75.3744 25.4157 73.0552 23.4259 73.0552 20.0156C73.0552 15.341 76.687 11.6879 81.7619 11.6879C82.9044 11.6879 83.891 11.9056 84.4609 12.1205L83.5083 15.101C83.0462 14.9112 82.499 14.7773 81.708 14.7773C78.8927 14.7773 77.1775 17.1132 77.1775 19.5858C77.1775 21.3858 78.3229 22.2984 79.7943 22.2984C80.9425 22.2984 81.7619 22.0305 82.4451 21.7626L82.4735 24.718Z" fill="white"/>
<path d="M84.2993 25.1199L85.8048 17.3002C86.1875 15.3131 86.3491 13.1112 86.488 11.981H89.8987C89.8164 12.8684 89.7371 13.7531 89.6548 14.6685H89.737C90.6641 12.9243 92.1667 11.6852 93.9954 11.6852C94.242 11.6852 94.483 11.6852 94.7325 11.7131L93.9642 15.4722C93.7771 15.4722 93.5559 15.4471 93.3376 15.4471C90.8286 15.4471 89.652 17.649 89.1587 20.2277L88.2316 25.1171H84.2993V25.1199Z" fill="white"/>
<path d="M105.29 24.3691C103.737 25.1478 101.798 25.4157 100.323 25.4157C96.5044 25.4157 94.5397 23.2668 94.5397 19.8537C94.5397 15.8517 97.4882 11.6879 102.319 11.6879C105.021 11.6879 106.957 13.1642 106.957 15.6117C106.957 18.969 103.655 20.1774 98.3047 20.0463C98.3047 20.423 98.4436 21.0119 98.7158 21.3886C99.2346 22.0612 100.136 22.41 101.282 22.41C102.727 22.41 103.955 22.0891 105.021 21.5784L105.29 24.3691ZM103.269 15.6089C103.269 14.9615 102.725 14.5066 101.826 14.5066C99.9944 14.5066 98.9596 15.9857 98.6874 17.222C101.744 17.2471 103.272 16.8201 103.272 15.6368V15.6089H103.269Z" fill="white"/>
<path d="M123.305 6.04489L120.606 20.0127C120.277 21.6787 120.03 23.5597 119.976 25.1198H116.373L116.566 22.996H116.512C115.338 24.743 113.699 25.4156 112.143 25.4156C109.878 25.4156 107.995 23.6434 107.995 20.448C107.995 15.8795 111.352 11.6878 116.401 11.6878C116.946 11.6878 117.657 11.7687 118.227 11.9836L119.375 6.04768H123.305V6.04489ZM117.657 15.0702C117.354 14.8302 116.756 14.6153 116.101 14.6153C113.751 14.6153 112.086 17.3028 112.086 19.8285C112.086 21.4136 112.795 22.3011 113.943 22.3011C115.06 22.3011 116.452 21.1178 116.974 18.6201L117.657 15.0702Z" fill="white"/>
<path d="M122.65 25.1198L125.187 11.9837H129.12L126.582 25.1198H122.65ZM127.62 10.3455C126.551 10.3455 125.734 9.61711 125.734 8.46452C125.763 7.15007 126.798 6.26261 128 6.26261C129.148 6.26261 129.964 7.01611 129.964 8.17149C129.964 9.54176 128.898 10.3483 127.64 10.3483H127.62V10.3455Z" fill="white"/>
<path d="M137.143 8.40856L136.463 11.9807H139.301L138.725 14.9083H135.887L134.985 19.3679C134.875 19.8786 134.767 20.5763 134.767 21.034C134.767 21.6787 135.039 22.1363 135.887 22.1363C136.241 22.1363 136.624 22.1363 136.979 22.0833L136.516 25.1197C136.023 25.3094 135.039 25.4155 134.195 25.4155C131.847 25.4155 130.727 24.2071 130.727 22.5689C130.727 21.8433 130.812 21.1456 131.002 20.127L132.04 14.911H130.35L130.894 11.9835H132.615L133.103 9.5137L137.143 8.40856Z" fill="white"/>
<path d="M152.784 17.0881C152.784 21.8966 149.453 25.4157 144.815 25.4157C141.432 25.4157 139.167 23.2389 139.167 19.9877C139.167 15.422 142.388 11.6852 147.137 11.6852C150.709 11.6852 152.784 14.1047 152.784 17.0881ZM143.233 19.9067C143.233 21.4389 143.998 22.4575 145.359 22.4575C147.519 22.4575 148.719 19.3681 148.719 17.1132C148.719 15.9048 148.2 14.6155 146.618 14.6155C144.35 14.6155 143.204 17.8667 143.233 19.9067Z" fill="white"/>
<path d="M154.174 21.6538C154.939 22.0305 156.385 22.5663 157.666 22.5663C158.786 22.5663 159.362 22.0305 159.362 21.3831C159.362 20.7384 158.922 20.2835 157.695 19.6919C156.138 18.9384 154.857 17.8388 154.857 16.1978C154.857 13.488 157.286 11.6852 160.725 11.6852C162.282 11.6852 163.51 11.981 164.164 12.3577L163.237 15.0983C162.665 14.8303 161.735 14.5066 160.561 14.5066C159.523 14.5066 158.815 14.9615 158.815 15.6648C158.815 16.2006 159.359 16.6583 160.45 17.169C161.894 17.8918 163.425 18.9411 163.425 20.7663C163.425 23.7775 160.833 25.4436 157.309 25.4157C155.619 25.3627 154.009 24.958 153.215 24.3692L154.174 21.6538Z" fill="white"/>
<path d="M167.19 10.2117C168.23 10.2117 169.055 11.0154 169.055 12.0089C169.055 13.0108 168.23 13.8146 167.181 13.8146C166.132 13.8146 165.282 13.0108 165.282 12.0089C165.282 11.0154 166.132 10.2117 167.181 10.2117H167.19ZM167.158 10.661C166.404 10.661 165.843 11.2582 165.843 12.0173C165.843 12.7597 166.404 13.368 167.167 13.368C167.932 13.3764 168.491 12.7624 168.491 12.0089C168.491 11.2582 167.93 10.661 167.167 10.661H167.158ZM166.946 12.8657H166.416V11.2052C166.532 11.1857 166.818 11.1438 167.158 11.1438C167.552 11.1438 167.708 11.194 167.839 11.2778C167.944 11.3503 168.015 11.4759 168.015 11.6434C168.015 11.8108 167.87 11.9559 167.638 12.0173V12.0396C167.816 12.0899 167.924 12.2266 167.975 12.4666C168.026 12.7066 168.068 12.8015 168.091 12.8629H167.521C167.465 12.8015 167.436 12.6536 167.394 12.5085C167.363 12.341 167.28 12.2573 167.105 12.2573H166.949V12.8657H166.946ZM166.957 11.9141H167.102C167.303 11.9141 167.422 11.8303 167.422 11.7159C167.422 11.5792 167.303 11.5066 167.133 11.5066C167.059 11.5066 166.997 11.5178 166.954 11.5178V11.9141H166.957Z" fill="white"/>
</svg>
