<svg width="36" height="36" viewBox="0 0 36 36" fill="none" xmlns="http://www.w3.org/2000/svg">
<path d="M9.58 18.38C9.6276 18.5028 9.69896 18.6149 9.79 18.71L16.79 25.71C16.883 25.8037 16.9936 25.8781 17.1154 25.9289C17.2373 25.9797 17.368 26.0058 17.5 26.0058C17.632 26.0058 17.7627 25.9797 17.8846 25.9289C18.0064 25.8781 18.117 25.8037 18.21 25.71C18.3037 25.617 18.3781 25.5064 18.4289 25.3846C18.4797 25.2627 18.5058 25.132 18.5058 25C18.5058 24.868 18.4797 24.7373 18.4289 24.6154C18.3781 24.4936 18.3037 24.383 18.21 24.29L12.91 19H25.5C25.7652 19 26.0196 18.8946 26.2071 18.7071C26.3946 18.5196 26.5 18.2652 26.5 18C26.5 17.7348 26.3946 17.4804 26.2071 17.2929C26.0196 17.1054 25.7652 17 25.5 17H12.91L18.21 11.71C18.3032 11.6168 18.3772 11.5061 18.4277 11.3843C18.4781 11.2624 18.5041 11.1319 18.5041 11C18.5041 10.8681 18.4781 10.7376 18.4277 10.6158C18.3772 10.4939 18.3032 10.3832 18.21 10.29C18.1168 10.1968 18.0061 10.1228 17.8843 10.0723C17.7624 10.0219 17.6319 9.99591 17.5 9.99591C17.3681 9.99591 17.2376 10.0219 17.1158 10.0723C16.9939 10.1228 16.8832 10.1968 16.79 10.29L9.79 17.29C9.69896 17.3851 9.6276 17.4973 9.58 17.62C9.47999 17.8635 9.47999 18.1365 9.58 18.38Z" fill="#888888"/>
</svg>
