<svg width="36" height="36" viewBox="0 0 36 36" fill="none" xmlns="http://www.w3.org/2000/svg">
<path d="M10.5 19H23.09L17.79 24.29C17.6963 24.383 17.6219 24.4936 17.5711 24.6154C17.5203 24.7373 17.4942 24.868 17.4942 25C17.4942 25.132 17.5203 25.2627 17.5711 25.3846C17.6219 25.5064 17.6963 25.617 17.79 25.71C17.883 25.8037 17.9936 25.8781 18.1154 25.9289C18.2373 25.9797 18.368 26.0058 18.5 26.0058C18.632 26.0058 18.7627 25.9797 18.8846 25.9289C19.0064 25.8781 19.117 25.8037 19.21 25.71L26.21 18.71C26.301 18.6149 26.3724 18.5028 26.42 18.38C26.52 18.1365 26.52 17.8635 26.42 17.62C26.3724 17.4973 26.301 17.3851 26.21 17.29L19.21 10.29C19.0217 10.1017 18.7663 9.99591 18.5 9.99591C18.2337 9.99591 17.9783 10.1017 17.79 10.29C17.6017 10.4783 17.4959 10.7337 17.4959 11C17.4959 11.2663 17.6017 11.5217 17.79 11.71L23.09 17H10.5C10.2348 17 9.98043 17.1054 9.79289 17.2929C9.60536 17.4804 9.5 17.7348 9.5 18C9.5 18.2652 9.60536 18.5196 9.79289 18.7071C9.98043 18.8946 10.2348 19 10.5 19Z" fill="#888888"/>
</svg>
