<svg width="104" height="48" viewBox="0 0 104 48" fill="none" xmlns="http://www.w3.org/2000/svg">
<path d="M30.08 26.3333C29.0825 26.7931 28.112 27.3095 27.1734 27.88C26.5254 28.3626 25.9107 28.8882 25.3334 29.4533C24.0949 28.086 22.5442 27.0384 20.8134 26.4C20.6737 26.3511 20.5252 26.3329 20.3779 26.3467C20.2307 26.3605 20.0881 26.406 19.96 26.48C19.64 26.8533 19.96 27.1067 20.3067 27.3067C20.9865 27.7059 21.575 28.2433 22.0343 28.884C22.4937 29.5247 22.8135 30.2547 22.9734 31.0267C23.4184 33.7987 23.3416 36.6295 22.7467 39.3733C22.5963 40.0571 22.2974 40.6993 21.8711 41.2546C21.4449 41.81 20.9017 42.2647 20.28 42.5867C21.1744 42.725 22.088 42.6705 22.9596 42.4267C23.8312 42.1829 24.6405 41.7556 25.3334 41.1733C25.9875 41.7479 26.7556 42.1778 27.5873 42.4352C28.419 42.6925 29.2957 42.7714 30.16 42.6667C30.16 42.6667 30.16 42.5333 30.16 42.52C29.509 42.1169 28.9559 41.5739 28.5408 40.9305C28.1257 40.287 27.859 39.5593 27.76 38.8C27.3736 36.3787 27.3197 33.9159 27.6 31.48C27.6893 30.6914 27.9535 29.9326 28.3733 29.2591C28.7932 28.5855 29.358 28.0142 30.0267 27.5867C30.2135 27.4886 30.3844 27.3628 30.5334 27.2133C30.6516 27.0135 30.7414 26.798 30.8 26.5733C30.5467 26.4667 30.24 26.2533 30.08 26.3333Z" fill="white"/>
<path d="M33.64 22.3867C31.7334 21.2533 28.7067 22.3867 28.3067 24.4533C28.7874 24.7002 29.3148 24.8424 29.8544 24.8707C30.394 24.8989 30.9335 24.8126 31.4373 24.6174C31.9412 24.4221 32.3979 24.1224 32.7776 23.7379C33.1572 23.3535 33.4512 22.8929 33.64 22.3867Z" fill="white"/>
<path d="M22.3734 24.4667C21.92 22.4267 19.12 21.32 17.04 22.3733C17.233 22.8767 17.5288 23.3342 17.9085 23.7169C18.2881 24.0995 18.7434 24.3989 19.2452 24.5958C19.747 24.7928 20.2843 24.883 20.8229 24.8608C21.3615 24.8385 21.8895 24.7043 22.3734 24.4667Z" fill="white"/>
<path d="M32.72 25.88C32.9822 26.2874 33.3332 26.6303 33.7466 26.8829C34.16 27.1355 34.6252 27.2914 35.1074 27.3388C35.5896 27.3863 36.0762 27.3241 36.531 27.1569C36.9857 26.9897 37.3968 26.7218 37.7334 26.3733C37.4764 25.9596 37.1276 25.6105 36.714 25.3532C36.3004 25.0959 35.8332 24.9373 35.3484 24.8895C34.8637 24.8418 34.3745 24.9064 33.9187 25.0781C33.4629 25.2499 33.0527 25.5243 32.72 25.88Z" fill="white"/>
<path d="M16.76 19.88C16.6309 19.4163 16.3985 18.9879 16.0801 18.6269C15.7617 18.2658 15.3657 17.9817 14.9218 17.7956C14.4778 17.6096 13.9975 17.5265 13.5169 17.5527C13.0363 17.5788 12.5678 17.7135 12.1467 17.9467C12.2689 18.4149 12.4974 18.8487 12.8146 19.2142C13.1317 19.5798 13.5289 19.8673 13.9752 20.0543C14.4215 20.2414 14.905 20.3229 15.388 20.2927C15.871 20.2625 16.3405 20.1212 16.76 19.88Z" fill="white"/>
<path d="M17.9467 25.8933C17.6177 25.5376 17.2116 25.2619 16.7595 25.0874C16.3075 24.913 15.8214 24.8443 15.3388 24.8868C14.8561 24.9293 14.3895 25.0817 13.9749 25.3325C13.5602 25.5832 13.2085 25.9256 12.9467 26.3333C13.2796 26.682 13.6866 26.9512 14.1377 27.1212C14.5887 27.2912 15.0723 27.3575 15.5525 27.3153C16.0326 27.273 16.4971 27.1233 16.9116 26.8771C17.326 26.631 17.6798 26.2947 17.9467 25.8933Z" fill="white"/>
<path d="M17.6 16C17.6311 15.5221 17.5522 15.0434 17.3694 14.6007C17.1866 14.158 16.9048 13.7632 16.5455 13.4464C16.1863 13.1297 15.7592 12.8995 15.2972 12.7736C14.8351 12.6476 14.3503 12.6293 13.88 12.72C13.8462 13.1986 13.9233 13.6786 14.1052 14.1226C14.2871 14.5666 14.5689 14.9627 14.9288 15.28C15.2887 15.5973 15.717 15.8274 16.1803 15.9522C16.6435 16.0771 17.1294 16.0935 17.6 16Z" fill="white"/>
<path d="M38.56 17.9867C38.143 17.745 37.6763 17.602 37.1955 17.5685C36.7147 17.535 36.2326 17.6119 35.7861 17.7933C35.3396 17.9747 34.9406 18.2559 34.6194 18.6152C34.2983 18.9746 34.0636 19.4027 33.9334 19.8667C34.3498 20.111 34.8169 20.2563 35.2984 20.2912C35.78 20.3261 36.2631 20.2497 36.7104 20.0679C37.1577 19.8862 37.5572 19.6039 37.8779 19.243C38.1987 18.8821 38.4321 18.4522 38.56 17.9867Z" fill="white"/>
<path d="M36.8267 12.7333C36.3563 12.6379 35.8702 12.6523 35.4063 12.7754C34.9423 12.8985 34.513 13.1269 34.1518 13.443C33.7906 13.7591 33.5072 14.1542 33.3236 14.5977C33.14 15.0412 33.0612 15.5211 33.0934 16C33.5634 16.0926 34.0485 16.0763 34.5112 15.9521C34.9739 15.828 35.402 15.5994 35.7626 15.2839C36.1231 14.9684 36.4066 14.5744 36.591 14.1323C36.7755 13.6901 36.8561 13.2115 36.8267 12.7333Z" fill="white"/>
<path d="M26.1334 17.92C25.694 18.1004 25.3008 18.3772 24.9827 18.7299C24.6645 19.0825 24.4296 19.5021 24.2953 19.9577C24.1609 20.4132 24.1305 20.8931 24.2063 21.362C24.2822 21.8308 24.4623 22.2767 24.7334 22.6667C25.1744 22.4882 25.5694 22.2125 25.889 21.8601C26.2086 21.5077 26.4445 21.0876 26.5791 20.6313C26.7137 20.1749 26.7435 19.6941 26.6664 19.2247C26.5892 18.7552 26.407 18.3092 26.1334 17.92Z" fill="white"/>
<path d="M21.3334 8.34667C21.009 8.69046 20.7697 9.10543 20.6346 9.55833C20.4995 10.0112 20.4723 10.4895 20.5553 10.9548C20.6382 11.4201 20.829 11.8595 21.1123 12.2378C21.3956 12.6161 21.7635 12.9228 22.1867 13.1333C22.511 12.7895 22.7503 12.3746 22.8854 11.9217C23.0205 11.4688 23.0477 10.9905 22.9647 10.5252C22.8818 10.0599 22.691 9.62054 22.4077 9.24223C22.1244 8.86392 21.7565 8.55721 21.3334 8.34667Z" fill="white"/>
<path d="M40.4534 22.36C40.1361 22.0082 39.742 21.7343 39.3016 21.5596C38.8613 21.385 38.3866 21.3143 37.9144 21.353C37.4423 21.3917 36.9854 21.5387 36.5794 21.7828C36.1733 22.0268 35.8291 22.3612 35.5734 22.76C35.8933 23.107 36.2881 23.3764 36.7278 23.548C37.1675 23.7196 37.6405 23.7887 38.1109 23.7501C38.5813 23.7116 39.0367 23.5664 39.4426 23.3255C39.8485 23.0846 40.1942 22.7544 40.4534 22.36Z" fill="white"/>
<path d="M10.24 22.3733C10.5015 22.7645 10.8476 23.0917 11.2528 23.3308C11.658 23.5698 12.1118 23.7146 12.5806 23.7543C13.0493 23.794 13.521 23.7276 13.9606 23.5601C14.4003 23.3926 14.7965 23.1283 15.12 22.7867C14.8672 22.3848 14.5245 22.0471 14.119 21.8002C13.7135 21.5533 13.2561 21.4039 12.783 21.3638C12.3099 21.3237 11.834 21.3941 11.3927 21.5692C10.9514 21.7444 10.5568 22.0197 10.24 22.3733Z" fill="white"/>
<path d="M29.4 8.32C28.9788 8.53367 28.6125 8.84176 28.3299 9.22024C28.0473 9.59873 27.856 10.0374 27.7708 10.502C27.6856 10.9666 27.7089 11.4446 27.8389 11.8987C27.9689 12.3528 28.202 12.7708 28.52 13.12C28.9454 12.9104 29.3158 12.6042 29.6018 12.2259C29.8877 11.8476 30.0811 11.4076 30.1666 10.9412C30.2521 10.4748 30.2273 9.99482 30.0942 9.53968C29.9611 9.08454 29.7234 8.66685 29.4 8.32Z" fill="white"/>
<path d="M25.0534 11.4667C24.7781 11.8471 24.5927 12.2851 24.511 12.7475C24.4294 13.21 24.4536 13.6849 24.5819 14.1367C24.7103 14.5884 24.9394 15.0051 25.2519 15.3556C25.5645 15.706 25.9525 15.9811 26.3867 16.16C26.6594 15.7787 26.8427 15.3409 26.923 14.879C27.0032 14.4172 26.9784 13.9432 26.8503 13.4922C26.7222 13.0413 26.4941 12.625 26.183 12.2744C25.8719 11.9237 25.4858 11.6476 25.0534 11.4667Z" fill="white"/>
<path d="M23.4 17.3333C23.48 15.48 22.0667 14.2133 19.8534 14.1733C19.3467 15.8 21.3334 17.5467 23.4 17.3333Z" fill="white"/>
<path d="M22.0267 20.7333C22.0267 18.96 20.3067 17.76 18.2134 18.0667C18.2434 18.5121 18.373 18.945 18.5925 19.3338C18.812 19.7225 19.1158 20.0571 19.4816 20.3129C19.8475 20.5687 20.266 20.7393 20.7064 20.812C21.1469 20.8848 21.598 20.8579 22.0267 20.7333Z" fill="white"/>
<path d="M32.4667 18.1067C30.5334 17.6667 28.4667 19.1067 28.68 20.7733C30.2667 21.3333 32.6134 19.8533 32.4667 18.1067Z" fill="white"/>
<path d="M31.52 13.76C29.6667 13.76 27.9734 15.8 28.6267 16.9867C29.0416 17.0079 29.456 16.936 29.8396 16.7764C30.2232 16.6167 30.5662 16.3734 30.8436 16.064C31.121 15.7547 31.3257 15.3873 31.4427 14.9886C31.5597 14.59 31.5862 14.1702 31.52 13.76Z" fill="white"/>
<path d="M10.6667 19.8C10.5051 19.4353 10.2597 19.1139 9.95043 18.862C9.64116 18.61 9.27676 18.4347 8.88691 18.3502C8.49706 18.2658 8.09278 18.2746 7.70697 18.3759C7.32115 18.4772 6.96472 18.6682 6.66669 18.9333C6.84786 19.2791 7.10273 19.5809 7.4133 19.8173C7.72387 20.0538 8.08257 20.2192 8.46406 20.3019C8.84556 20.3845 9.24055 20.3824 9.62114 20.2957C10.0017 20.209 10.3587 20.0398 10.6667 19.8Z" fill="white"/>
<path d="M9.33335 13.7733C9.37438 14.1646 9.50597 14.5409 9.7177 14.8725C9.92943 15.2041 10.2155 15.4818 10.5532 15.6837C10.8909 15.8855 11.2709 16.0059 11.6632 16.0354C12.0555 16.0648 12.4493 16.0025 12.8134 15.8533C12.7778 15.4596 12.6495 15.0799 12.4392 14.7451C12.2288 14.4104 11.9422 14.1302 11.6029 13.9274C11.2635 13.7245 10.881 13.6049 10.4866 13.5781C10.0922 13.5513 9.69699 13.6182 9.33335 13.7733Z" fill="white"/>
<path d="M39.3334 25.0267C39.5377 25.3519 39.8099 25.6291 40.1313 25.8393C40.4527 26.0496 40.8158 26.188 41.1956 26.2449C41.5754 26.3019 41.9631 26.2762 42.3321 26.1695C42.701 26.0627 43.0426 25.8776 43.3334 25.6267C43.1424 25.2863 42.8762 24.994 42.555 24.7722C42.2339 24.5505 41.8662 24.4051 41.4803 24.3472C41.0943 24.2893 40.7002 24.3204 40.3281 24.4382C39.956 24.556 39.6157 24.7573 39.3334 25.0267Z" fill="white"/>
<path d="M7.26669 25.5867C7.54596 25.8547 7.88184 26.0567 8.24957 26.1777C8.61729 26.2986 9.00747 26.3355 9.39135 26.2856C9.77523 26.2357 10.143 26.1003 10.4676 25.8893C10.7922 25.6784 11.0652 25.3972 11.2667 25.0667C10.9923 24.7888 10.6573 24.5782 10.288 24.4512C9.91867 24.3242 9.525 24.2844 9.13773 24.3347C8.75046 24.3851 8.38007 24.5243 8.0555 24.7414C7.73093 24.9586 7.46096 25.2479 7.26669 25.5867Z" fill="white"/>
<path d="M24 25.8C24 26.1536 24.1405 26.4928 24.3905 26.7428C24.6406 26.9929 24.9797 27.1333 25.3334 27.1333C25.687 27.1333 26.0261 26.9929 26.2762 26.7428C26.5262 26.4928 26.6667 26.1536 26.6667 25.8C26.6667 25.4464 26.5262 25.1072 26.2762 24.8572C26.0261 24.6071 25.687 24.4667 25.3334 24.4667C24.985 24.4829 24.6552 24.6286 24.4086 24.8752C24.1619 25.1218 24.0162 25.4516 24 25.8Z" fill="white"/>
<path d="M41.3334 13.7733C40.9694 13.6246 40.576 13.5622 40.1839 13.5909C39.7918 13.6197 39.4117 13.7388 39.0733 13.9389C38.735 14.1391 38.4476 14.4149 38.2336 14.7447C38.0196 15.0746 37.8849 15.4494 37.84 15.84C38.2033 15.9976 38.5988 16.0669 38.994 16.0421C39.3893 16.0174 39.773 15.8994 40.1139 15.6978C40.4547 15.4961 40.7429 15.2166 40.9549 14.8821C41.1668 14.5476 41.2965 14.1676 41.3334 13.7733Z" fill="white"/>
<path d="M25.72 5.33334C25.3976 5.56989 25.1354 5.87904 24.9547 6.23577C24.774 6.5925 24.6798 6.98677 24.6798 7.38667C24.6798 7.78656 24.774 8.18084 24.9547 8.53757C25.1354 8.8943 25.3976 9.20345 25.72 9.44C26.022 9.18978 26.2651 8.87603 26.4319 8.52111C26.5987 8.16619 26.6852 7.77884 26.6852 7.38667C26.6852 6.99449 26.5987 6.60715 26.4319 6.25223C26.2651 5.89731 26.022 5.58356 25.72 5.33334Z" fill="white"/>
<path d="M34.5734 9.09334C34.1839 9.10797 33.8029 9.21134 33.4594 9.39557C33.116 9.57979 32.8191 9.84001 32.5915 10.1564C32.3638 10.4727 32.2115 10.8369 32.1459 11.2211C32.0804 11.6053 32.1035 11.9994 32.2134 12.3733C32.6088 12.3753 32.999 12.2828 33.3513 12.1033C33.7037 11.9239 34.0081 11.6628 34.239 11.3418C34.47 11.0208 34.6208 10.6493 34.679 10.2581C34.7371 9.867 34.7009 9.46763 34.5734 9.09334Z" fill="white"/>
<path d="M31.7067 28.5333C31.74 28.9238 31.8639 29.301 32.0686 29.6352C32.2733 29.9693 32.553 30.2512 32.8857 30.4583C33.2183 30.6654 33.5947 30.792 33.9849 30.8282C34.3751 30.8644 34.7683 30.8091 35.1334 30.6667C35.1027 30.2751 34.9805 29.8961 34.7765 29.5604C34.5726 29.2247 34.2926 28.9417 33.9591 28.7341C33.6257 28.5265 33.2481 28.4001 32.8568 28.3653C32.4656 28.3304 32.0716 28.388 31.7067 28.5333Z" fill="white"/>
<path d="M16.12 9.05334C16.017 9.39649 15.9842 9.75688 16.0236 10.113C16.063 10.4691 16.1737 10.8136 16.3492 11.126C16.5246 11.4384 16.7613 11.7122 17.0449 11.9311C17.3285 12.1499 17.6534 12.3094 18 12.4C18.44 12.48 18.5734 12.3067 18.6 11.88C18.6439 11.1768 18.4077 10.4848 17.9431 9.95513C17.4784 9.42549 16.823 9.10129 16.12 9.05334Z" fill="white"/>
<path d="M18.44 28.36C18.0971 28.3116 17.7478 28.3337 17.4137 28.4249C17.0796 28.5161 16.7676 28.6745 16.4967 28.8904C16.2259 29.1063 16.002 29.3752 15.8386 29.6806C15.6753 29.986 15.5759 30.3216 15.5467 30.6667C16.2014 30.9015 16.9219 30.8711 17.5546 30.5822C18.1873 30.2933 18.6821 29.7686 18.9334 29.12C19.1334 28.5867 18.9734 28.4 18.44 28.36Z" fill="white"/>
<path d="M40 19.8133C40.3081 20.0531 40.665 20.2223 41.0456 20.309C41.4262 20.3957 41.8211 20.3979 42.2026 20.3152C42.5841 20.2325 42.9428 20.0671 43.2534 19.8307C43.564 19.5942 43.8188 19.2924 44 18.9467C43.7044 18.6758 43.3481 18.4798 42.9611 18.3751C42.5741 18.2704 42.1676 18.2601 41.7758 18.345C41.3839 18.4299 41.0182 18.6075 40.7092 18.863C40.4002 19.1185 40.157 19.4444 40 19.8133Z" fill="white"/>
<path d="M52.5867 26.96C51.7769 26.96 51.0003 26.6383 50.4277 26.0657C49.855 25.4931 49.5334 24.7165 49.5334 23.9067C49.5334 23.0969 49.855 22.3202 50.4277 21.7476C51.0003 21.175 51.7769 20.8533 52.5867 20.8533C53.1011 20.8696 53.6059 20.9972 54.0663 21.2274C54.5267 21.4576 54.9317 21.7849 55.2533 22.1867L56.8 20.36C55.6539 19.2678 54.1299 18.661 52.5467 18.6667C51.8463 18.6605 51.1516 18.7924 50.5022 19.0548C49.8527 19.3171 49.2614 19.7049 48.7618 20.1958C48.2622 20.6867 47.8642 21.2712 47.5905 21.9159C47.3168 22.5606 47.1728 23.253 47.1667 23.9533C47.1606 24.6537 47.2924 25.3485 47.5548 25.9979C47.8172 26.6473 48.2049 27.2387 48.6958 27.7382C49.1867 28.2378 49.7712 28.6358 50.4159 28.9095C51.0607 29.1832 51.753 29.3272 52.4534 29.3333C54.0853 29.2784 55.633 28.5954 56.7734 27.4267L55.2134 25.7867C54.5189 26.4977 53.5796 26.9172 52.5867 26.96Z" fill="white"/>
<path d="M66.6667 22.36C66.6667 20 65.0533 18.6667 62.28 18.6667H57.6133V29.12H60.28V26.1867H62.3733L63.9334 29.12H66.9334L64.7333 25.6667C65.3437 25.3651 65.8522 24.891 66.1959 24.3033C66.5395 23.7155 66.7032 23.0399 66.6667 22.36ZM62.3067 24.1467H60.2667V20.8133H62.28C63.44 20.8133 64.1067 21.36 64.1067 22.4533C64.1067 23.5467 63.44 24.1467 62.28 24.1467H62.3067Z" fill="white"/>
<path d="M74.8267 24.7867C74.8593 25.0793 74.8287 25.3755 74.7368 25.6552C74.6449 25.9349 74.4939 26.1916 74.2941 26.4079C74.0943 26.6241 73.8504 26.7949 73.5788 26.9085C73.3072 27.0222 73.0143 27.0761 72.72 27.0667C72.4215 27.079 72.1238 27.0278 71.8466 26.9163C71.5694 26.8048 71.3191 26.6356 71.1123 26.42C70.9055 26.2044 70.7469 25.9472 70.6471 25.6656C70.5473 25.384 70.5085 25.0844 70.5334 24.7867V18.6667H67.8667V24.7333C67.8667 27.4933 69.7467 29.24 72.6934 29.24C73.3126 29.3041 73.9383 29.2337 74.5278 29.0335C75.1172 28.8333 75.6565 28.508 76.1085 28.08C76.5606 27.652 76.9148 27.1314 77.1469 26.5537C77.379 25.9761 77.4836 25.3551 77.4533 24.7333V18.6667H74.7867L74.8267 24.7867Z" fill="white"/>
<path d="M84 26.96C83.1902 26.96 82.4136 26.6383 81.841 26.0657C81.2684 25.4931 80.9467 24.7165 80.9467 23.9067C80.9467 23.0969 81.2684 22.3202 81.841 21.7476C82.4136 21.175 83.1902 20.8533 84 20.8533C84.5145 20.8696 85.0193 20.9972 85.4797 21.2274C85.94 21.4576 86.345 21.7849 86.6667 22.1867L88.2134 20.36C87.0573 19.2581 85.517 18.6506 83.92 18.6667C83.2196 18.6605 82.5249 18.7924 81.8755 19.0548C81.2261 19.3171 80.6347 19.7049 80.1351 20.1958C79.6355 20.6867 79.2375 21.2712 78.9639 21.9159C78.6902 22.5606 78.5461 23.253 78.54 23.9533C78.5339 24.6537 78.6658 25.3485 78.9281 25.9979C79.1905 26.6473 79.5782 27.2387 80.0691 27.7382C80.56 28.2378 81.1445 28.6358 81.7893 28.9095C82.434 29.1832 83.1263 29.3272 83.8267 29.3333C85.4586 29.2784 87.0063 28.5954 88.1467 27.4267L86.5867 25.7867C85.9022 26.4885 84.9789 26.9073 84 26.96Z" fill="white"/>
<path d="M91.64 24.9733H96.6267V22.8933H91.64V20.8133H97.1733V18.72H88.9867V29.1733H97.3333V27.08H91.64V24.9733Z" fill="white"/>
</svg>
