<svg width="48" height="48" viewBox="0 0 48 48" fill="none" xmlns="http://www.w3.org/2000/svg">
<path d="M22.6316 30.2613C18.4342 30.2613 15 26.8275 15 22.6307C15 18.4338 18.4342 15 22.6316 15C26.8289 15 30.2631 18.4338 30.2631 22.6307C30.2631 26.8275 26.8289 30.2613 22.6316 30.2613ZM22.6316 15.9538C18.9112 15.9538 15.9539 18.9107 15.9539 22.6307C15.9539 26.3506 18.9112 29.3075 22.6316 29.3075C26.352 29.3075 29.3092 26.3506 29.3092 22.6307C29.3092 18.9107 26.352 15.9538 22.6316 15.9538Z" fill="white"/>
<path d="M28.0084 27.3346L27.3339 28.009L32.3255 33L33 32.3255L28.0084 27.3346Z" fill="white"/>
</svg>
