<svg width="36" height="36" viewBox="0 0 36 36" fill="none" xmlns="http://www.w3.org/2000/svg">
<path d="M18.5 5.5H17.5C14.3174 5.5 11.2652 6.76428 9.01472 9.01472C6.76428 11.2652 5.5 14.3174 5.5 17.5V18.5C5.5 21.6826 6.76428 24.7348 9.01472 26.9853C11.2652 29.2357 14.3174 30.5 17.5 30.5H18.5C21.6826 30.5 24.7348 29.2357 26.9853 26.9853C29.2357 24.7348 30.5 21.6826 30.5 18.5V17.5C30.5 14.3174 29.2357 11.2652 26.9853 9.01472C24.7348 6.76428 21.6826 5.5 18.5 5.5ZM28.5 18.5C28.5 21.1522 27.4464 23.6957 25.5711 25.5711C23.6957 27.4464 21.1522 28.5 18.5 28.5H17.5C14.8478 28.5 12.3043 27.4464 10.4289 25.5711C8.55357 23.6957 7.5 21.1522 7.5 18.5V17.5C7.5 14.8478 8.55357 12.3043 10.4289 10.4289C12.3043 8.55357 14.8478 7.5 17.5 7.5H18.5C21.1522 7.5 23.6957 8.55357 25.5711 10.4289C27.4464 12.3043 28.5 14.8478 28.5 17.5V18.5Z" fill="#8C8C8C"/>
<path d="M21.7 10.5H19.78C19.2951 10.4751 18.8106 10.5547 18.3592 10.7333C17.9077 10.9119 17.4999 11.1854 17.1633 11.5352C16.8267 11.8851 16.5692 12.3032 16.4082 12.7612C16.2472 13.2192 16.1864 13.7065 16.23 14.19V15.89H14.3C14.2195 15.8926 14.1432 15.9264 14.0872 15.9843C14.0312 16.0421 14 16.1195 14 16.2V18.67C14.0025 18.7488 14.0349 18.8236 14.0906 18.8794C14.1464 18.9351 14.2212 18.9675 14.3 18.97H16.23V25.19C16.23 25.2705 16.2612 25.3479 16.3172 25.4057C16.3732 25.4636 16.4495 25.4974 16.53 25.5H19.05C19.0903 25.5 19.1301 25.4919 19.1672 25.4762C19.2042 25.4605 19.2378 25.4376 19.2657 25.4086C19.2937 25.3797 19.3156 25.3454 19.3301 25.3079C19.3446 25.2703 19.3513 25.2302 19.35 25.19V19H21.61C21.6888 18.9975 21.7636 18.9651 21.8194 18.9094C21.8751 18.8536 21.9075 18.7788 21.91 18.7V16.2C21.91 16.1195 21.8788 16.0421 21.8228 15.9843C21.7668 15.9264 21.6905 15.8926 21.61 15.89H19.35V14.45C19.35 13.76 19.51 13.45 20.41 13.45H21.7C21.7394 13.45 21.7784 13.4422 21.8148 13.4272C21.8512 13.4121 21.8843 13.39 21.9121 13.3621C21.94 13.3343 21.9621 13.3012 21.9772 13.2648C21.9922 13.2284 22 13.1894 22 13.15V10.81C22.0013 10.7698 21.9946 10.7297 21.9801 10.6921C21.9656 10.6546 21.9437 10.6203 21.9157 10.5914C21.8878 10.5624 21.8542 10.5395 21.8172 10.5238C21.7801 10.5081 21.7403 10.5 21.7 10.5Z" fill="#8C8C8C"/>
</svg>
