<svg width="36" height="36" viewBox="0 0 36 36" fill="none" xmlns="http://www.w3.org/2000/svg">
<path d="M24.5 13C25.3284 13 26 12.3284 26 11.5C26 10.6716 25.3284 10 24.5 10C23.6716 10 23 10.6716 23 11.5C23 12.3284 23.6716 13 24.5 13Z" fill="#8C8C8C"/>
<path d="M24 30C25.5913 30 27.1174 29.3679 28.2426 28.2426C29.3679 27.1174 30 25.5913 30 24V12C30 10.4087 29.3679 8.88258 28.2426 7.75736C27.1174 6.63214 25.5913 6 24 6H12C10.4087 6 8.88258 6.63214 7.75736 7.75736C6.63214 8.88258 6 10.4087 6 12V24C6 25.5913 6.63214 27.1174 7.75736 28.2426C8.88258 29.3679 10.4087 30 12 30H24ZM8 24V12C8 10.9391 8.42143 9.92172 9.17157 9.17157C9.92172 8.42143 10.9391 8 12 8H24C25.0609 8 26.0783 8.42143 26.8284 9.17157C27.5786 9.92172 28 10.9391 28 12V24C28 25.0609 27.5786 26.0783 26.8284 26.8284C26.0783 27.5786 25.0609 28 24 28H12C10.9391 28 9.92172 27.5786 9.17157 26.8284C8.42143 26.0783 8 25.0609 8 24Z" fill="#8C8C8C"/>
<path d="M18 24C19.1867 24 20.3467 23.6481 21.3334 22.9888C22.3201 22.3295 23.0892 21.3925 23.5433 20.2961C23.9974 19.1997 24.1162 17.9933 23.8847 16.8295C23.6532 15.6656 23.0818 14.5965 22.2426 13.7574C21.4035 12.9182 20.3344 12.3468 19.1705 12.1153C18.0067 11.8838 16.8003 12.0026 15.7039 12.4567C14.6075 12.9108 13.6705 13.6799 13.0112 14.6666C12.3519 15.6533 12 16.8133 12 18C12 19.5913 12.6321 21.1174 13.7574 22.2426C14.8826 23.3679 16.4087 24 18 24ZM18 14C18.7911 14 19.5645 14.2346 20.2223 14.6741C20.8801 15.1136 21.3928 15.7384 21.6955 16.4693C21.9983 17.2002 22.0775 18.0044 21.9231 18.7804C21.7688 19.5563 21.3878 20.269 20.8284 20.8284C20.269 21.3878 19.5563 21.7688 18.7804 21.9231C18.0044 22.0775 17.2002 21.9983 16.4693 21.6955C15.7384 21.3928 15.1136 20.8801 14.6741 20.2223C14.2346 19.5645 14 18.7911 14 18C14 16.9391 14.4214 15.9217 15.1716 15.1716C15.9217 14.4214 16.9391 14 18 14Z" fill="#8C8C8C"/>
</svg>
