<svg width="48" height="48" viewBox="0 0 48 48" fill="none" xmlns="http://www.w3.org/2000/svg">
<path d="M34 34H32.9474C32.9474 29.1795 28.9474 25.2821 24 25.2821C19.0526 25.2821 15.0526 29.1795 15.0526 34H14C14 28.6667 18.5263 24.2564 24 24.2564C29.4737 24.2564 34 28.6667 34 34Z" fill="white"/>
<path d="M24 25.2821C20.8421 25.2821 18.2105 22.7179 18.2105 19.641C18.2105 16.5641 20.8421 14 24 14C27.1579 14 29.7895 16.5641 29.7895 19.641C29.7895 22.7179 27.1579 25.2821 24 25.2821ZM24 15.0256C21.3684 15.0256 19.2632 17.0769 19.2632 19.641C19.2632 22.2051 21.3684 24.2564 24 24.2564C26.6316 24.2564 28.7368 22.2051 28.7368 19.641C28.7368 17.0769 26.6316 15.0256 24 15.0256Z" fill="white"/>
</svg>
